<mxfile host="app.diagrams.net" modified="2023-07-20T04:02:47.796Z" agent="Mozilla/5.0 (Windows NT 10.0; Win64; x64) AppleWebKit/537.36 (KHTML, like Gecko) Chrome/114.0.0.0 Safari/537.36" etag="fDNXyHaDmlh4qH6p236-" version="21.6.3" type="google">
  <diagram name="Page-1" id="hCBrN9F9kg9yELBUgHz0">
    <mxGraphModel grid="0" page="0" gridSize="10" guides="1" tooltips="1" connect="1" arrows="1" fold="1" pageScale="1" pageWidth="850" pageHeight="1100" math="0" shadow="0">
      <root>
        <mxCell id="0" />
        <mxCell id="1" parent="0" />
        <mxCell id="Kha7p-0pKT-xRUgH4Zrp-63" style="edgeStyle=orthogonalEdgeStyle;rounded=0;orthogonalLoop=1;jettySize=auto;html=1;labelBackgroundColor=none;fontColor=default;entryX=-0.007;entryY=0.559;entryDx=0;entryDy=0;entryPerimeter=0;strokeColor=#788AA3;" edge="1" parent="1" source="jCh2vAqL-qauHgvOBUfU-2" target="Kha7p-0pKT-xRUgH4Zrp-20">
          <mxGeometry relative="1" as="geometry">
            <mxPoint x="458" y="-490" as="targetPoint" />
          </mxGeometry>
        </mxCell>
        <mxCell id="Kha7p-0pKT-xRUgH4Zrp-65" style="edgeStyle=orthogonalEdgeStyle;rounded=0;orthogonalLoop=1;jettySize=auto;html=1;labelBackgroundColor=none;fontColor=default;strokeColor=#788AA3;" edge="1" parent="1" source="jCh2vAqL-qauHgvOBUfU-3" target="Kha7p-0pKT-xRUgH4Zrp-24">
          <mxGeometry relative="1" as="geometry">
            <Array as="points">
              <mxPoint x="473" y="-379" />
              <mxPoint x="473" y="-181" />
            </Array>
          </mxGeometry>
        </mxCell>
        <mxCell id="Kha7p-0pKT-xRUgH4Zrp-66" style="edgeStyle=orthogonalEdgeStyle;rounded=0;orthogonalLoop=1;jettySize=auto;html=1;entryX=0;entryY=0.5;entryDx=0;entryDy=0;labelBackgroundColor=none;fontColor=default;strokeColor=#788AA3;" edge="1" parent="1" source="jCh2vAqL-qauHgvOBUfU-2" target="Kha7p-0pKT-xRUgH4Zrp-26">
          <mxGeometry relative="1" as="geometry" />
        </mxCell>
        <mxCell id="Kha7p-0pKT-xRUgH4Zrp-67" style="edgeStyle=orthogonalEdgeStyle;rounded=0;orthogonalLoop=1;jettySize=auto;html=1;labelBackgroundColor=none;fontColor=default;strokeColor=#788AA3;" edge="1" parent="1" source="jCh2vAqL-qauHgvOBUfU-2">
          <mxGeometry relative="1" as="geometry">
            <mxPoint x="253.5" y="122.5999755859375" as="targetPoint" />
          </mxGeometry>
        </mxCell>
        <mxCell id="jCh2vAqL-qauHgvOBUfU-2" value="ASSISTIVE TECHNOLOGY" style="swimlane;fontStyle=1;align=center;verticalAlign=top;childLayout=stackLayout;horizontal=1;startSize=26;horizontalStack=0;resizeParent=1;resizeParentMax=0;resizeLast=0;collapsible=1;marginBottom=0;whiteSpace=wrap;html=1;fontSize=16;labelBackgroundColor=none;fillColor=#B2C9AB;fontColor=#46495D;strokeColor=#788AA3;" vertex="1" parent="1">
          <mxGeometry x="96" y="-691" width="340" height="494" as="geometry" />
        </mxCell>
        <mxCell id="jCh2vAqL-qauHgvOBUfU-3" value="&lt;b&gt;+ Aids&lt;/b&gt;: wheelchairs, crutches, walker, scooters&lt;br&gt;&lt;b&gt;+ Visual Tools&lt;/b&gt;: braille reader, tactile maps, magnification software&lt;br&gt;&lt;b&gt;+ Hearing Aids:&lt;/b&gt;&amp;nbsp;cochlear implants, assistive listening devices, (CCTV) captioning systems&lt;br&gt;&lt;b style=&quot;border-color: var(--border-color);&quot;&gt;+ A&lt;/b&gt;&lt;b&gt;daptive Tools:&lt;/b&gt;&amp;nbsp;personalized learning software, speech-to-text tools, alternative input methods, multisensory learning resources&lt;br&gt;&lt;b&gt;+ SpeakingTools: &lt;/b&gt;ArrayList&amp;lt;SpeakingTools&amp;gt;&lt;br&gt;&lt;b style=&quot;border-color: var(--border-color);&quot;&gt;+ WritingTools:&amp;nbsp;&lt;/b&gt;ArrayList&amp;lt;WritingTools&amp;gt;&lt;br&gt;&lt;b style=&quot;border-color: var(--border-color);&quot;&gt;+ ReadingTools:&amp;nbsp;&lt;/b&gt;ArrayList&amp;lt;ReadingTools&amp;gt;&lt;br&gt;&lt;b style=&quot;border-color: var(--border-color);&quot;&gt;+ MathTools:&amp;nbsp;&lt;/b&gt;ArrayList&amp;lt;MathTools&amp;gt;" style="text;strokeColor=none;fillColor=none;align=left;verticalAlign=top;spacingLeft=4;spacingRight=4;overflow=hidden;rotatable=0;points=[[0,0.5],[1,0.5]];portConstraint=eastwest;whiteSpace=wrap;html=1;fontSize=16;labelBackgroundColor=none;fontColor=#46495D;" vertex="1" parent="jCh2vAqL-qauHgvOBUfU-2">
          <mxGeometry y="26" width="340" height="289" as="geometry" />
        </mxCell>
        <mxCell id="jCh2vAqL-qauHgvOBUfU-4" value="" style="line;strokeWidth=1;fillColor=none;align=left;verticalAlign=middle;spacingTop=-1;spacingLeft=3;spacingRight=3;rotatable=0;labelPosition=right;points=[];portConstraint=eastwest;fontSize=16;labelBackgroundColor=none;strokeColor=#788AA3;fontColor=#46495D;" vertex="1" parent="jCh2vAqL-qauHgvOBUfU-2">
          <mxGeometry y="315" width="340" height="8" as="geometry" />
        </mxCell>
        <mxCell id="jCh2vAqL-qauHgvOBUfU-5" value="+ getListOfAids()&lt;br&gt;+ getListOfVisualTools()&lt;br&gt;+ getListOfHearingAids()&lt;br&gt;+ getListOfAdaptiveTools()&lt;br&gt;+ getSpeakingTools()&lt;br&gt;+ getWritingTools()&lt;br&gt;+ getReadingTools()&lt;br&gt;+ getMathTools()" style="text;strokeColor=none;fillColor=none;align=left;verticalAlign=top;spacingLeft=4;spacingRight=4;overflow=hidden;rotatable=0;points=[[0,0.5],[1,0.5]];portConstraint=eastwest;whiteSpace=wrap;html=1;fontSize=16;labelBackgroundColor=none;fontColor=#46495D;" vertex="1" parent="jCh2vAqL-qauHgvOBUfU-2">
          <mxGeometry y="323" width="340" height="171" as="geometry" />
        </mxCell>
        <mxCell id="jCh2vAqL-qauHgvOBUfU-7" value="ERROR HANDLING" style="swimlane;fontStyle=1;align=center;verticalAlign=top;childLayout=stackLayout;horizontal=1;startSize=26;horizontalStack=0;resizeParent=1;resizeParentMax=0;resizeLast=0;collapsible=1;marginBottom=0;whiteSpace=wrap;html=1;fontSize=16;labelBackgroundColor=none;fillColor=#B2C9AB;fontColor=#46495D;strokeColor=#788AA3;" vertex="1" parent="1">
          <mxGeometry x="-818" y="321" width="287" height="103" as="geometry" />
        </mxCell>
        <mxCell id="jCh2vAqL-qauHgvOBUfU-8" value="+ &lt;b&gt;unsupportedFile&lt;/b&gt;: ArrayList&amp;lt;File&amp;gt;" style="text;strokeColor=none;fillColor=none;align=left;verticalAlign=top;spacingLeft=4;spacingRight=4;overflow=hidden;rotatable=0;points=[[0,0.5],[1,0.5]];portConstraint=eastwest;whiteSpace=wrap;html=1;fontSize=16;labelBackgroundColor=none;fontColor=#46495D;" vertex="1" parent="jCh2vAqL-qauHgvOBUfU-7">
          <mxGeometry y="26" width="287" height="26" as="geometry" />
        </mxCell>
        <mxCell id="jCh2vAqL-qauHgvOBUfU-9" value="" style="line;strokeWidth=1;fillColor=none;align=left;verticalAlign=middle;spacingTop=-1;spacingLeft=3;spacingRight=3;rotatable=0;labelPosition=right;points=[];portConstraint=eastwest;fontSize=16;labelBackgroundColor=none;strokeColor=#788AA3;fontColor=#46495D;" vertex="1" parent="jCh2vAqL-qauHgvOBUfU-7">
          <mxGeometry y="52" width="287" height="8" as="geometry" />
        </mxCell>
        <mxCell id="jCh2vAqL-qauHgvOBUfU-10" value="+ FileNotFound(file): errorMessage" style="text;strokeColor=none;fillColor=none;align=left;verticalAlign=top;spacingLeft=4;spacingRight=4;overflow=hidden;rotatable=0;points=[[0,0.5],[1,0.5]];portConstraint=eastwest;whiteSpace=wrap;html=1;fontSize=16;labelBackgroundColor=none;fontColor=#46495D;" vertex="1" parent="jCh2vAqL-qauHgvOBUfU-7">
          <mxGeometry y="60" width="287" height="43" as="geometry" />
        </mxCell>
        <mxCell id="Kha7p-0pKT-xRUgH4Zrp-70" style="edgeStyle=orthogonalEdgeStyle;rounded=0;orthogonalLoop=1;jettySize=auto;html=1;entryX=0.002;entryY=0.162;entryDx=0;entryDy=0;entryPerimeter=0;labelBackgroundColor=none;fontColor=default;strokeColor=#788AA3;" edge="1" parent="1" source="jCh2vAqL-qauHgvOBUfU-11" target="jCh2vAqL-qauHgvOBUfU-35">
          <mxGeometry relative="1" as="geometry" />
        </mxCell>
        <mxCell id="jCh2vAqL-qauHgvOBUfU-11" value="SCREENREADER" style="swimlane;fontStyle=1;align=center;verticalAlign=top;childLayout=stackLayout;horizontal=1;startSize=26;horizontalStack=0;resizeParent=1;resizeParentMax=0;resizeLast=0;collapsible=1;marginBottom=0;whiteSpace=wrap;html=1;fontSize=16;labelBackgroundColor=none;fillColor=#B2C9AB;fontColor=#46495D;strokeColor=#788AA3;" vertex="1" parent="1">
          <mxGeometry x="198" y="120" width="238" height="187" as="geometry" />
        </mxCell>
        <mxCell id="jCh2vAqL-qauHgvOBUfU-13" value="" style="line;strokeWidth=1;fillColor=none;align=left;verticalAlign=middle;spacingTop=-1;spacingLeft=3;spacingRight=3;rotatable=0;labelPosition=right;points=[];portConstraint=eastwest;fontSize=16;labelBackgroundColor=none;strokeColor=#788AA3;fontColor=#46495D;" vertex="1" parent="jCh2vAqL-qauHgvOBUfU-11">
          <mxGeometry y="26" width="238" height="8" as="geometry" />
        </mxCell>
        <mxCell id="jCh2vAqL-qauHgvOBUfU-12" value="&lt;b&gt;+ Type:&lt;/b&gt; JAWS, NVDA, voiceover, talkback, Narrator, ChromeVox, aspireReader, ClassMateReader&lt;br&gt;&lt;hr id=&quot;null&quot;&gt;" style="text;strokeColor=none;fillColor=none;align=left;verticalAlign=top;spacingLeft=4;spacingRight=4;overflow=hidden;rotatable=0;points=[[0,0.5],[1,0.5]];portConstraint=eastwest;whiteSpace=wrap;html=1;fontSize=16;labelBackgroundColor=none;fontColor=#46495D;" vertex="1" parent="jCh2vAqL-qauHgvOBUfU-11">
          <mxGeometry y="34" width="238" height="96" as="geometry" />
        </mxCell>
        <mxCell id="jCh2vAqL-qauHgvOBUfU-14" value="+personalizeScreenReaderTool()&lt;br&gt;+getAvailableScreanReaders()" style="text;strokeColor=none;fillColor=none;align=left;verticalAlign=top;spacingLeft=4;spacingRight=4;overflow=hidden;rotatable=0;points=[[0,0.5],[1,0.5]];portConstraint=eastwest;whiteSpace=wrap;html=1;fontSize=16;labelBackgroundColor=none;fontColor=#46495D;" vertex="1" parent="jCh2vAqL-qauHgvOBUfU-11">
          <mxGeometry y="130" width="238" height="57" as="geometry" />
        </mxCell>
        <mxCell id="Kha7p-0pKT-xRUgH4Zrp-73" style="edgeStyle=orthogonalEdgeStyle;rounded=0;orthogonalLoop=1;jettySize=auto;html=1;labelBackgroundColor=none;fontColor=default;strokeColor=#788AA3;" edge="1" parent="1">
          <mxGeometry relative="1" as="geometry">
            <mxPoint x="-697" y="-156" as="sourcePoint" />
            <mxPoint x="-298" y="-414" as="targetPoint" />
            <Array as="points">
              <mxPoint x="-697" y="-229" />
              <mxPoint x="-306" y="-229" />
              <mxPoint x="-306" y="-382" />
              <mxPoint x="-302" y="-382" />
            </Array>
          </mxGeometry>
        </mxCell>
        <mxCell id="jCh2vAqL-qauHgvOBUfU-16" value="&lt;b&gt;VISUALLYIMPAIRED&lt;/b&gt;" style="swimlane;fontStyle=0;childLayout=stackLayout;horizontal=1;startSize=26;fillColor=#B2C9AB;horizontalStack=0;resizeParent=1;resizeParentMax=0;resizeLast=0;collapsible=1;marginBottom=0;whiteSpace=wrap;html=1;fontSize=16;labelBackgroundColor=none;fontColor=#46495D;strokeColor=#788AA3;" vertex="1" parent="1">
          <mxGeometry x="-812" y="-156" width="262" height="189" as="geometry" />
        </mxCell>
        <mxCell id="jCh2vAqL-qauHgvOBUfU-17" value="+ &lt;b&gt;disabilityType:&lt;/b&gt; blind, low vision, deaf" style="text;strokeColor=none;fillColor=none;align=left;verticalAlign=top;spacingLeft=4;spacingRight=4;overflow=hidden;rotatable=0;points=[[0,0.5],[1,0.5]];portConstraint=eastwest;whiteSpace=wrap;html=1;fontSize=16;labelBackgroundColor=none;fontColor=#46495D;" vertex="1" parent="jCh2vAqL-qauHgvOBUfU-16">
          <mxGeometry y="26" width="262" height="50" as="geometry" />
        </mxCell>
        <mxCell id="jCh2vAqL-qauHgvOBUfU-19" value="&lt;hr id=&quot;null&quot;&gt;+ getTypesOfDisabilities()&lt;br&gt;+ isBlind()&lt;br&gt;+ isLowVision()&lt;br&gt;+ isDeaf()" style="text;strokeColor=none;fillColor=none;align=left;verticalAlign=top;spacingLeft=4;spacingRight=4;overflow=hidden;rotatable=0;points=[[0,0.5],[1,0.5]];portConstraint=eastwest;whiteSpace=wrap;html=1;fontSize=16;labelBackgroundColor=none;fontColor=#46495D;" vertex="1" parent="jCh2vAqL-qauHgvOBUfU-16">
          <mxGeometry y="76" width="262" height="113" as="geometry" />
        </mxCell>
        <mxCell id="Kha7p-0pKT-xRUgH4Zrp-74" style="edgeStyle=orthogonalEdgeStyle;rounded=0;orthogonalLoop=1;jettySize=auto;html=1;labelBackgroundColor=none;fontColor=default;strokeColor=#788AA3;" edge="1" parent="1" source="jCh2vAqL-qauHgvOBUfU-23">
          <mxGeometry relative="1" as="geometry">
            <mxPoint x="-610.5" y="319.4000244140625" as="targetPoint" />
          </mxGeometry>
        </mxCell>
        <mxCell id="jCh2vAqL-qauHgvOBUfU-23" value="&lt;b&gt;UNSUPPORTED FILE&lt;/b&gt;" style="swimlane;fontStyle=0;childLayout=stackLayout;horizontal=1;startSize=26;fillColor=#B2C9AB;horizontalStack=0;resizeParent=1;resizeParentMax=0;resizeLast=0;collapsible=1;marginBottom=0;whiteSpace=wrap;html=1;fontSize=16;labelBackgroundColor=none;fontColor=#46495D;strokeColor=#788AA3;" vertex="1" parent="1">
          <mxGeometry x="-812" y="56" width="257" height="192" as="geometry" />
        </mxCell>
        <mxCell id="jCh2vAqL-qauHgvOBUfU-24" value="&lt;b&gt;+ Picture&lt;/b&gt;: jpeg, png, gif" style="text;strokeColor=none;fillColor=none;align=left;verticalAlign=top;spacingLeft=4;spacingRight=4;overflow=hidden;rotatable=0;points=[[0,0.5],[1,0.5]];portConstraint=eastwest;whiteSpace=wrap;html=1;fontSize=16;labelBackgroundColor=none;fontColor=#46495D;" vertex="1" parent="jCh2vAqL-qauHgvOBUfU-23">
          <mxGeometry y="26" width="257" height="26" as="geometry" />
        </mxCell>
        <mxCell id="jCh2vAqL-qauHgvOBUfU-25" value="&lt;b&gt;+ LatexMath:&amp;nbsp;&lt;/b&gt;equation, matrix" style="text;strokeColor=none;fillColor=none;align=left;verticalAlign=top;spacingLeft=4;spacingRight=4;overflow=hidden;rotatable=0;points=[[0,0.5],[1,0.5]];portConstraint=eastwest;whiteSpace=wrap;html=1;fontSize=16;labelBackgroundColor=none;fontColor=#46495D;" vertex="1" parent="jCh2vAqL-qauHgvOBUfU-23">
          <mxGeometry y="52" width="257" height="26" as="geometry" />
        </mxCell>
        <mxCell id="jCh2vAqL-qauHgvOBUfU-26" value="+ &lt;b&gt;Multimedia&lt;/b&gt;: mpeg, wav&lt;br&gt;&lt;hr id=&quot;null&quot;&gt;+ getAvailableImageTypes()&lt;br&gt;+ getLatexMath()&lt;br&gt;+ getAvailableMultiMediaTypes()" style="text;strokeColor=none;fillColor=none;align=left;verticalAlign=top;spacingLeft=4;spacingRight=4;overflow=hidden;rotatable=0;points=[[0,0.5],[1,0.5]];portConstraint=eastwest;whiteSpace=wrap;html=1;fontSize=16;labelBackgroundColor=none;fontColor=#46495D;" vertex="1" parent="jCh2vAqL-qauHgvOBUfU-23">
          <mxGeometry y="78" width="257" height="114" as="geometry" />
        </mxCell>
        <mxCell id="jCh2vAqL-qauHgvOBUfU-33" value="&lt;b&gt;SCREENREADER TECHNOLOGY&lt;/b&gt;" style="swimlane;fontStyle=0;childLayout=stackLayout;horizontal=1;startSize=53;fillColor=#B2C9AB;horizontalStack=0;resizeParent=1;resizeParentMax=0;resizeLast=0;collapsible=1;marginBottom=0;whiteSpace=wrap;html=1;fontSize=16;labelBackgroundColor=none;fontColor=#46495D;strokeColor=#788AA3;" vertex="1" parent="1">
          <mxGeometry x="476" y="124" width="264" height="298" as="geometry" />
        </mxCell>
        <mxCell id="jCh2vAqL-qauHgvOBUfU-34" value="+ &lt;b&gt;Software&lt;/b&gt;: JAWS, NVDA" style="text;strokeColor=none;fillColor=none;align=left;verticalAlign=top;spacingLeft=4;spacingRight=4;overflow=hidden;rotatable=0;points=[[0,0.5],[1,0.5]];portConstraint=eastwest;whiteSpace=wrap;html=1;fontSize=16;labelBackgroundColor=none;fontColor=#46495D;" vertex="1" parent="jCh2vAqL-qauHgvOBUfU-33">
          <mxGeometry y="53" width="264" height="26" as="geometry" />
        </mxCell>
        <mxCell id="jCh2vAqL-qauHgvOBUfU-35" value="+ &lt;b&gt;NonVisual Desktop Access:&lt;/b&gt;&lt;br&gt;+ &lt;b&gt;Magnification: zoomtext, windows magnifier&lt;/b&gt;&lt;br&gt;+ &lt;b&gt;LargePrint: &lt;/b&gt;zoomtext, magic, lunar&lt;br&gt;+ &lt;b&gt;TextToSpeech: &lt;/b&gt;MS word&lt;br&gt;&lt;hr id=&quot;null&quot;&gt;+ getSoftwareList()&lt;br&gt;+ getMagnificationDetails()&lt;br&gt;+ getLargePrint()&lt;br&gt;+ getTextToSpeech()" style="text;strokeColor=none;fillColor=none;align=left;verticalAlign=top;spacingLeft=4;spacingRight=4;overflow=hidden;rotatable=0;points=[[0,0.5],[1,0.5]];portConstraint=eastwest;whiteSpace=wrap;html=1;fontSize=16;labelBackgroundColor=none;fontColor=#46495D;" vertex="1" parent="jCh2vAqL-qauHgvOBUfU-33">
          <mxGeometry y="79" width="264" height="219" as="geometry" />
        </mxCell>
        <mxCell id="Kha7p-0pKT-xRUgH4Zrp-30" value="" style="edgeStyle=orthogonalEdgeStyle;rounded=0;orthogonalLoop=1;jettySize=auto;html=1;entryX=0.75;entryY=0;entryDx=0;entryDy=0;labelBackgroundColor=none;fontColor=default;strokeColor=#788AA3;" edge="1" parent="1" source="jCh2vAqL-qauHgvOBUfU-42" target="jCh2vAqL-qauHgvOBUfU-47">
          <mxGeometry relative="1" as="geometry">
            <mxPoint x="124" y="-533.5" as="targetPoint" />
          </mxGeometry>
        </mxCell>
        <mxCell id="Kha7p-0pKT-xRUgH4Zrp-71" style="edgeStyle=orthogonalEdgeStyle;rounded=0;orthogonalLoop=1;jettySize=auto;html=1;entryX=0.65;entryY=-0.002;entryDx=0;entryDy=0;entryPerimeter=0;labelBackgroundColor=none;fontColor=default;strokeColor=#788AA3;" edge="1" parent="1" source="jCh2vAqL-qauHgvOBUfU-42" target="jCh2vAqL-qauHgvOBUfU-2">
          <mxGeometry relative="1" as="geometry" />
        </mxCell>
        <mxCell id="Kha7p-0pKT-xRUgH4Zrp-87" style="edgeStyle=orthogonalEdgeStyle;rounded=0;orthogonalLoop=1;jettySize=auto;html=1;entryX=0.5;entryY=0;entryDx=0;entryDy=0;labelBackgroundColor=none;strokeColor=#788AA3;fontColor=default;" edge="1" parent="1" source="jCh2vAqL-qauHgvOBUfU-42">
          <mxGeometry relative="1" as="geometry">
            <mxPoint x="-649.5" y="-691" as="targetPoint" />
          </mxGeometry>
        </mxCell>
        <mxCell id="jCh2vAqL-qauHgvOBUfU-42" value="&lt;b&gt;&lt;font style=&quot;font-size: 20px;&quot;&gt;GEORGIA TECH&lt;/font&gt;&lt;/b&gt;" style="html=1;whiteSpace=wrap;fontSize=16;labelBackgroundColor=none;fillColor=#B2C9AB;strokeColor=#788AA3;fontColor=#46495D;" vertex="1" parent="1">
          <mxGeometry x="-883" y="-812" width="1968" height="67" as="geometry" />
        </mxCell>
        <mxCell id="Kha7p-0pKT-xRUgH4Zrp-61" style="edgeStyle=orthogonalEdgeStyle;rounded=0;orthogonalLoop=1;jettySize=auto;html=1;entryX=0.785;entryY=0.001;entryDx=0;entryDy=0;entryPerimeter=0;labelBackgroundColor=none;fontColor=default;strokeColor=#788AA3;" edge="1" parent="1" source="jCh2vAqL-qauHgvOBUfU-47" target="q4d5p_5_pBkJAAgMPwGI-1">
          <mxGeometry relative="1" as="geometry" />
        </mxCell>
        <mxCell id="Kha7p-0pKT-xRUgH4Zrp-72" style="edgeStyle=orthogonalEdgeStyle;rounded=0;orthogonalLoop=1;jettySize=auto;html=1;entryX=0.001;entryY=0.603;entryDx=0;entryDy=0;entryPerimeter=0;labelBackgroundColor=none;fontColor=default;strokeColor=#788AA3;" edge="1" parent="1" source="jCh2vAqL-qauHgvOBUfU-47" target="jCh2vAqL-qauHgvOBUfU-3">
          <mxGeometry relative="1" as="geometry" />
        </mxCell>
        <mxCell id="jCh2vAqL-qauHgvOBUfU-47" value="STUDENT" style="swimlane;fontStyle=1;align=center;verticalAlign=top;childLayout=stackLayout;horizontal=1;startSize=26;horizontalStack=0;resizeParent=1;resizeParentMax=0;resizeLast=0;collapsible=1;marginBottom=0;whiteSpace=wrap;html=1;fontSize=16;labelBackgroundColor=none;fillColor=#B2C9AB;fontColor=#46495D;strokeColor=#788AA3;" vertex="1" parent="1">
          <mxGeometry x="-353" y="-691" width="316" height="265" as="geometry" />
        </mxCell>
        <mxCell id="jCh2vAqL-qauHgvOBUfU-48" value="+ &lt;b&gt;Student&lt;/b&gt;: ArrayList&amp;lt;AssistiveTechnology&amp;gt;&lt;br&gt;+ &lt;b&gt;DIsability&lt;/b&gt;: ArrayList&amp;lt;VisuallyImparied&amp;gt;&lt;br&gt;&lt;b&gt;+ DOB: &lt;/b&gt;6/16/2005&lt;br&gt;&lt;b&gt;+ Name:&lt;/b&gt; Chris Reynolds, Alex Steve&lt;br&gt;&lt;b&gt;+ Courses Taken:&amp;nbsp;&lt;/b&gt;ArrayList&amp;lt;Courses&amp;gt;&lt;br&gt;&lt;hr id=&quot;null&quot;&gt;+ getDisableStudentsDemographics()&lt;br style=&quot;border-color: var(--border-color);&quot;&gt;+ getDisableStudentsAndCourses()&lt;br style=&quot;border-color: var(--border-color);&quot;&gt;+ getDisableStudent(student)" style="text;strokeColor=none;fillColor=none;align=left;verticalAlign=top;spacingLeft=4;spacingRight=4;overflow=hidden;rotatable=0;points=[[0,0.5],[1,0.5]];portConstraint=eastwest;whiteSpace=wrap;html=1;fontSize=16;labelBackgroundColor=none;fontColor=#46495D;" vertex="1" parent="jCh2vAqL-qauHgvOBUfU-47">
          <mxGeometry y="26" width="316" height="231" as="geometry" />
        </mxCell>
        <mxCell id="jCh2vAqL-qauHgvOBUfU-49" value="" style="line;strokeWidth=1;fillColor=none;align=left;verticalAlign=middle;spacingTop=-1;spacingLeft=3;spacingRight=3;rotatable=0;labelPosition=right;points=[];portConstraint=eastwest;fontSize=16;labelBackgroundColor=none;strokeColor=#788AA3;fontColor=#46495D;" vertex="1" parent="jCh2vAqL-qauHgvOBUfU-47">
          <mxGeometry y="257" width="316" height="8" as="geometry" />
        </mxCell>
        <mxCell id="Kha7p-0pKT-xRUgH4Zrp-88" style="edgeStyle=orthogonalEdgeStyle;rounded=0;orthogonalLoop=1;jettySize=auto;html=1;entryX=-0.005;entryY=0.084;entryDx=0;entryDy=0;entryPerimeter=0;labelBackgroundColor=none;strokeColor=#788AA3;fontColor=default;" edge="1" parent="1" source="q4d5p_5_pBkJAAgMPwGI-1" target="q4d5p_5_pBkJAAgMPwGI-11">
          <mxGeometry relative="1" as="geometry" />
        </mxCell>
        <mxCell id="q4d5p_5_pBkJAAgMPwGI-1" value="&lt;font style=&quot;font-size: 16px;&quot;&gt;&lt;b&gt;ADDRESS&lt;/b&gt;&lt;/font&gt;" style="swimlane;fontStyle=0;childLayout=stackLayout;horizontal=1;startSize=26;fillColor=#B2C9AB;horizontalStack=0;resizeParent=1;resizeParentMax=0;resizeLast=0;collapsible=1;marginBottom=0;whiteSpace=wrap;html=1;labelBackgroundColor=none;fontColor=#46495D;strokeColor=#788AA3;" vertex="1" parent="1">
          <mxGeometry x="-447" y="-209" width="289" height="245" as="geometry" />
        </mxCell>
        <mxCell id="q4d5p_5_pBkJAAgMPwGI-2" value="&lt;font style=&quot;font-size: 16px;&quot;&gt;&lt;b&gt;+&amp;nbsp;Student Name: &lt;/b&gt;XYZ&lt;br&gt;&lt;b&gt;+ Street: &lt;/b&gt;University Ave&lt;br&gt;&lt;b&gt;+ City: &lt;/b&gt;Los Angeles, New York&lt;br&gt;&lt;b&gt;+ State: &lt;/b&gt;CA, GA, CO, MA, OR&lt;br&gt;&lt;b&gt;+ Zipcode: &lt;/b&gt;30097,94306,52120&lt;br&gt;&lt;b&gt;+ Country: &lt;/b&gt;US,IN, CN, FR&lt;br&gt;&lt;hr id=&quot;null&quot;&gt;+ getStreet()&lt;br&gt;+ getCity()&lt;br&gt;+ getState()&lt;br&gt;+ getZipcode()&lt;br&gt;&lt;/font&gt;" style="text;strokeColor=none;fillColor=none;align=left;verticalAlign=top;spacingLeft=4;spacingRight=4;overflow=hidden;rotatable=0;points=[[0,0.5],[1,0.5]];portConstraint=eastwest;whiteSpace=wrap;html=1;labelBackgroundColor=none;fontColor=#46495D;" vertex="1" parent="q4d5p_5_pBkJAAgMPwGI-1">
          <mxGeometry y="26" width="289" height="219" as="geometry" />
        </mxCell>
        <mxCell id="Kha7p-0pKT-xRUgH4Zrp-75" style="edgeStyle=orthogonalEdgeStyle;rounded=0;orthogonalLoop=1;jettySize=auto;html=1;entryX=0.034;entryY=-0.02;entryDx=0;entryDy=0;entryPerimeter=0;labelBackgroundColor=none;fontColor=default;strokeColor=#788AA3;" edge="1" parent="1" target="Kha7p-0pKT-xRUgH4Zrp-1">
          <mxGeometry relative="1" as="geometry">
            <mxPoint x="-510" y="-518" as="sourcePoint" />
          </mxGeometry>
        </mxCell>
        <mxCell id="Kha7p-0pKT-xRUgH4Zrp-84" style="edgeStyle=orthogonalEdgeStyle;rounded=0;orthogonalLoop=1;jettySize=auto;html=1;labelBackgroundColor=none;fontColor=default;strokeColor=#788AA3;exitX=1;exitY=0.5;exitDx=0;exitDy=0;" edge="1" parent="1" source="Kha7p-0pKT-xRUgH4Zrp-95" target="jCh2vAqL-qauHgvOBUfU-48">
          <mxGeometry relative="1" as="geometry">
            <mxPoint x="-510" y="-518" as="sourcePoint" />
            <Array as="points">
              <mxPoint x="-528" y="-519" />
              <mxPoint x="-440" y="-519" />
              <mxPoint x="-440" y="-549" />
            </Array>
          </mxGeometry>
        </mxCell>
        <mxCell id="Kha7p-0pKT-xRUgH4Zrp-76" style="edgeStyle=orthogonalEdgeStyle;rounded=0;orthogonalLoop=1;jettySize=auto;html=1;entryX=1.011;entryY=0.614;entryDx=0;entryDy=0;entryPerimeter=0;labelBackgroundColor=none;fontColor=default;strokeColor=#788AA3;" edge="1" parent="1" source="q4d5p_5_pBkJAAgMPwGI-11" target="Kha7p-0pKT-xRUgH4Zrp-2">
          <mxGeometry relative="1" as="geometry" />
        </mxCell>
        <mxCell id="Kha7p-0pKT-xRUgH4Zrp-89" style="edgeStyle=orthogonalEdgeStyle;rounded=0;orthogonalLoop=1;jettySize=auto;html=1;entryX=1.001;entryY=0.008;entryDx=0;entryDy=0;entryPerimeter=0;labelBackgroundColor=none;strokeColor=#788AA3;fontColor=default;" edge="1" parent="1" source="q4d5p_5_pBkJAAgMPwGI-11" target="Kha7p-0pKT-xRUgH4Zrp-97">
          <mxGeometry relative="1" as="geometry">
            <mxPoint x="-504.4200000000001" y="-352.3600000000001" as="targetPoint" />
            <Array as="points">
              <mxPoint x="37" y="-374" />
              <mxPoint x="-507" y="-374" />
              <mxPoint x="-507" y="-358" />
            </Array>
          </mxGeometry>
        </mxCell>
        <mxCell id="q4d5p_5_pBkJAAgMPwGI-11" value="&lt;b&gt;&lt;font style=&quot;font-size: 16px;&quot;&gt;FACULTY&lt;/font&gt;&lt;/b&gt;" style="swimlane;fontStyle=0;childLayout=stackLayout;horizontal=1;startSize=26;fillColor=#B2C9AB;horizontalStack=0;resizeParent=1;resizeParentMax=0;resizeLast=0;collapsible=1;marginBottom=0;whiteSpace=wrap;html=1;labelBackgroundColor=none;fontColor=#46495D;strokeColor=#788AA3;" vertex="1" parent="1">
          <mxGeometry x="-96" y="-173" width="266" height="437" as="geometry" />
        </mxCell>
        <mxCell id="q4d5p_5_pBkJAAgMPwGI-12" value="&lt;font style=&quot;font-size: 16px;&quot;&gt;&lt;b&gt;+&amp;nbsp;Name: &lt;/b&gt;John Mathew, Kieth Kale&lt;br&gt;&lt;b&gt;+ Title: &lt;/b&gt;Asst Prof, Dean&lt;br&gt;&lt;b&gt;+ Department: &lt;/b&gt;COC&lt;br&gt;&lt;b&gt;+ College: &lt;/b&gt;College of Sciences&lt;br&gt;&lt;b&gt;+ Semester taught: &lt;/b&gt;Summer, Fall&lt;br&gt;&lt;b&gt;+ listofTAs: &lt;/b&gt;John Teller, Alex Card&lt;br&gt;&lt;b&gt;+ Research projects: &lt;/b&gt;AI, HCI&lt;br&gt;&lt;b&gt;+ Address: &lt;/b&gt;ArrayList&amp;lt;Address&amp;gt;&lt;br&gt;&lt;b&gt;+ Student:&amp;nbsp;&lt;/b&gt; ArrayList&amp;lt;Student&amp;gt;&lt;br&gt;&lt;b&gt;+ Course:&lt;/b&gt; ArrayList&amp;lt;Courses&amp;gt;&lt;br&gt;&lt;hr id=&quot;null&quot;&gt;+ getName()&lt;br&gt;+ getCoursesTaught()&lt;br&gt;+ getAddress()&lt;br&gt;+ getListOfStudents()&lt;br&gt;+ getSemesterTaught()&lt;br&gt;+ getDepartment()&lt;br&gt;+ getTitle()&lt;br&gt;+ getCollege()&lt;br&gt;+ getListOfTAs()&lt;br&gt;&lt;/font&gt;" style="text;strokeColor=none;fillColor=none;align=left;verticalAlign=top;spacingLeft=4;spacingRight=4;overflow=hidden;rotatable=0;points=[[0,0.5],[1,0.5]];portConstraint=eastwest;whiteSpace=wrap;html=1;labelBackgroundColor=none;fontColor=#46495D;" vertex="1" parent="q4d5p_5_pBkJAAgMPwGI-11">
          <mxGeometry y="26" width="266" height="411" as="geometry" />
        </mxCell>
        <mxCell id="Kha7p-0pKT-xRUgH4Zrp-79" style="edgeStyle=orthogonalEdgeStyle;rounded=0;orthogonalLoop=1;jettySize=auto;html=1;entryX=0.581;entryY=-0.033;entryDx=0;entryDy=0;entryPerimeter=0;labelBackgroundColor=none;fontColor=default;strokeColor=#788AA3;" edge="1" parent="1" source="Kha7p-0pKT-xRUgH4Zrp-1" target="Kha7p-0pKT-xRUgH4Zrp-11">
          <mxGeometry relative="1" as="geometry" />
        </mxCell>
        <mxCell id="Kha7p-0pKT-xRUgH4Zrp-90" style="edgeStyle=orthogonalEdgeStyle;rounded=0;orthogonalLoop=1;jettySize=auto;html=1;entryX=0.441;entryY=0.012;entryDx=0;entryDy=0;entryPerimeter=0;strokeColor=#788AA3;fontColor=#46495D;fillColor=#B2C9AB;" edge="1" parent="1" source="Kha7p-0pKT-xRUgH4Zrp-1" target="Kha7p-0pKT-xRUgH4Zrp-5">
          <mxGeometry relative="1" as="geometry" />
        </mxCell>
        <mxCell id="Kha7p-0pKT-xRUgH4Zrp-92" style="edgeStyle=orthogonalEdgeStyle;rounded=0;orthogonalLoop=1;jettySize=auto;html=1;entryX=1;entryY=0.5;entryDx=0;entryDy=0;strokeColor=#788AA3;fontColor=#46495D;fillColor=#B2C9AB;" edge="1" parent="1" source="Kha7p-0pKT-xRUgH4Zrp-1" target="jCh2vAqL-qauHgvOBUfU-26">
          <mxGeometry relative="1" as="geometry" />
        </mxCell>
        <mxCell id="Kha7p-0pKT-xRUgH4Zrp-1" value="&lt;b&gt;&lt;font style=&quot;font-size: 16px;&quot;&gt;DOCUMENT&lt;/font&gt;&lt;/b&gt;" style="swimlane;fontStyle=0;childLayout=stackLayout;horizontal=1;startSize=26;fillColor=#B2C9AB;horizontalStack=0;resizeParent=1;resizeParentMax=0;resizeLast=0;collapsible=1;marginBottom=0;whiteSpace=wrap;html=1;labelBackgroundColor=none;fontColor=#46495D;strokeColor=#788AA3;" vertex="1" parent="1">
          <mxGeometry x="-493" y="63" width="322" height="475" as="geometry" />
        </mxCell>
        <mxCell id="Kha7p-0pKT-xRUgH4Zrp-2" value="&lt;font style=&quot;font-size: 16px;&quot;&gt;&lt;b&gt;+&amp;nbsp;Type: &lt;/b&gt;pdf,MS word, html&lt;br&gt;&lt;b&gt;+ Course: &lt;/b&gt;cs6795,cs6768&lt;br&gt;&lt;b&gt;+ Faculty: &lt;/b&gt;ArrayList&amp;lt;Faculty&amp;gt;&lt;br&gt;&lt;b&gt;+ Title: &lt;/b&gt;Info Security-Lesson1, DataPower-Lesson3&lt;br&gt;&lt;b&gt;+ Keywords: &lt;/b&gt;science, technology&lt;br&gt;&lt;b&gt;+ Instructional designer: &lt;/b&gt;Maria Poppy&lt;br&gt;&lt;b&gt;+ Date created: &lt;/b&gt;6/21/2021&lt;br&gt;&lt;b&gt;+ Devices supported: &lt;/b&gt;ios, andriod, windows, osx&lt;br&gt;&lt;b&gt;+ Accessible flag: &lt;/b&gt;Y,N&lt;br&gt;&lt;b&gt;+ Media:&lt;/b&gt; ArrayList&amp;lt;Media&amp;gt;&lt;br&gt;&lt;hr id=&quot;null&quot;&gt;+ getType()&lt;br&gt;+ getCourseOfDocument()&lt;br&gt;+ getFaculty()&lt;br&gt;+ getTitle()&lt;br&gt;+ getKeywords()&lt;br&gt;+ getInstructionalDesigner()&lt;br&gt;+ getDateCreated()&lt;br&gt;+ getDevicesSupported()&lt;br&gt;+ getAccessibleFlag()&lt;br&gt;+ getMedia()&lt;br&gt;&lt;/font&gt;" style="text;strokeColor=none;fillColor=none;align=left;verticalAlign=top;spacingLeft=4;spacingRight=4;overflow=hidden;rotatable=0;points=[[0,0.5],[1,0.5]];portConstraint=eastwest;whiteSpace=wrap;html=1;labelBackgroundColor=none;fontColor=#46495D;" vertex="1" parent="Kha7p-0pKT-xRUgH4Zrp-1">
          <mxGeometry y="26" width="322" height="449" as="geometry" />
        </mxCell>
        <mxCell id="Kha7p-0pKT-xRUgH4Zrp-78" style="edgeStyle=orthogonalEdgeStyle;rounded=0;orthogonalLoop=1;jettySize=auto;html=1;entryX=0;entryY=0.5;entryDx=0;entryDy=0;labelBackgroundColor=none;fontColor=default;strokeColor=#788AA3;" edge="1" parent="1" source="Kha7p-0pKT-xRUgH4Zrp-5" target="Kha7p-0pKT-xRUgH4Zrp-10">
          <mxGeometry relative="1" as="geometry" />
        </mxCell>
        <mxCell id="Kha7p-0pKT-xRUgH4Zrp-5" value="&lt;b&gt;&lt;font style=&quot;font-size: 16px;&quot;&gt;DOCUMENTHTML&lt;/font&gt;&lt;/b&gt;" style="swimlane;fontStyle=0;childLayout=stackLayout;horizontal=1;startSize=26;fillColor=#B2C9AB;horizontalStack=0;resizeParent=1;resizeParentMax=0;resizeLast=0;collapsible=1;marginBottom=0;whiteSpace=wrap;html=1;labelBackgroundColor=none;fontColor=#46495D;strokeColor=#788AA3;" vertex="1" parent="1">
          <mxGeometry x="-140" y="407" width="310" height="256" as="geometry" />
        </mxCell>
        <mxCell id="Kha7p-0pKT-xRUgH4Zrp-6" value="&lt;font style=&quot;font-size: 16px;&quot;&gt;&lt;b&gt;+&amp;nbsp;URL: &lt;/b&gt;http://example.com/index&lt;br&gt;&lt;b&gt;+ Tags: &lt;/b&gt;html, body, div&lt;br&gt;&lt;b&gt;+&amp;nbsp;Accessible flag: &lt;/b&gt;Y/N&lt;br&gt;&lt;b&gt;+ Title: &lt;/b&gt;Welcome to CS6795 home page&lt;br&gt;&lt;b&gt;+ Header: &lt;/b&gt;meta, image&lt;br&gt;&lt;hr id=&quot;null&quot;&gt;+ getUrlOfDocumentHtml()&lt;br&gt;+ getTags()&lt;br&gt;+ getAccessibleFlag()&lt;br&gt;+ getTitle()&lt;br&gt;+ getHeader()&lt;br&gt;&lt;/font&gt;" style="text;strokeColor=none;fillColor=none;align=left;verticalAlign=top;spacingLeft=4;spacingRight=4;overflow=hidden;rotatable=0;points=[[0,0.5],[1,0.5]];portConstraint=eastwest;whiteSpace=wrap;html=1;labelBackgroundColor=none;fontColor=#46495D;" vertex="1" parent="Kha7p-0pKT-xRUgH4Zrp-5">
          <mxGeometry y="26" width="310" height="230" as="geometry" />
        </mxCell>
        <mxCell id="Kha7p-0pKT-xRUgH4Zrp-9" value="&lt;b&gt;&lt;font style=&quot;font-size: 16px;&quot;&gt;DOCUMENTHTMLTAG&lt;/font&gt;&lt;/b&gt;" style="swimlane;fontStyle=0;childLayout=stackLayout;horizontal=1;startSize=26;fillColor=#B2C9AB;horizontalStack=0;resizeParent=1;resizeParentMax=0;resizeLast=0;collapsible=1;marginBottom=0;whiteSpace=wrap;html=1;labelBackgroundColor=none;fontColor=#46495D;strokeColor=#788AA3;" vertex="1" parent="1">
          <mxGeometry x="192" y="417" width="310" height="182" as="geometry" />
        </mxCell>
        <mxCell id="Kha7p-0pKT-xRUgH4Zrp-10" value="&lt;font style=&quot;font-size: 16px;&quot;&gt;&lt;b&gt;+ Tag: &lt;/b&gt;img, div, p&lt;br&gt;&lt;b&gt;+ Attributes: &lt;/b&gt;src, alt, width, height&lt;br&gt;&lt;b&gt;+ Css-styles: &lt;/b&gt;font, color, border&lt;br&gt;&lt;hr id=&quot;null&quot;&gt;+ getTag()&lt;br&gt;+ getAttributes()&lt;br&gt;+ getCssStyles()&lt;br&gt;&lt;/font&gt;" style="text;strokeColor=none;fillColor=none;align=left;verticalAlign=top;spacingLeft=4;spacingRight=4;overflow=hidden;rotatable=0;points=[[0,0.5],[1,0.5]];portConstraint=eastwest;whiteSpace=wrap;html=1;labelBackgroundColor=none;fontColor=#46495D;" vertex="1" parent="Kha7p-0pKT-xRUgH4Zrp-9">
          <mxGeometry y="26" width="310" height="156" as="geometry" />
        </mxCell>
        <mxCell id="Kha7p-0pKT-xRUgH4Zrp-80" style="edgeStyle=orthogonalEdgeStyle;rounded=0;orthogonalLoop=1;jettySize=auto;html=1;entryX=0.532;entryY=-0.007;entryDx=0;entryDy=0;entryPerimeter=0;labelBackgroundColor=none;fontColor=default;strokeColor=#788AA3;" edge="1" parent="1" source="Kha7p-0pKT-xRUgH4Zrp-11" target="Kha7p-0pKT-xRUgH4Zrp-13">
          <mxGeometry relative="1" as="geometry">
            <Array as="points">
              <mxPoint x="-484" y="637" />
              <mxPoint x="-688" y="637" />
            </Array>
          </mxGeometry>
        </mxCell>
        <mxCell id="Kha7p-0pKT-xRUgH4Zrp-82" style="edgeStyle=orthogonalEdgeStyle;rounded=0;orthogonalLoop=1;jettySize=auto;html=1;labelBackgroundColor=none;fontColor=default;strokeColor=#788AA3;" edge="1" parent="1" source="Kha7p-0pKT-xRUgH4Zrp-11" target="Kha7p-0pKT-xRUgH4Zrp-17">
          <mxGeometry relative="1" as="geometry" />
        </mxCell>
        <mxCell id="Kha7p-0pKT-xRUgH4Zrp-13" value="&lt;b&gt;&lt;font style=&quot;font-size: 16px;&quot;&gt;IMAGES&lt;/font&gt;&lt;/b&gt;" style="swimlane;fontStyle=0;childLayout=stackLayout;horizontal=1;startSize=26;fillColor=#B2C9AB;horizontalStack=0;resizeParent=1;resizeParentMax=0;resizeLast=0;collapsible=1;marginBottom=0;whiteSpace=wrap;html=1;labelBackgroundColor=none;fontColor=#46495D;strokeColor=#788AA3;" vertex="1" parent="1">
          <mxGeometry x="-883" y="929" width="310" height="276" as="geometry" />
        </mxCell>
        <mxCell id="Kha7p-0pKT-xRUgH4Zrp-14" value="&lt;font style=&quot;font-size: 16px;&quot;&gt;&lt;b&gt;+ Format: &lt;/b&gt;png, jpeg, gif&lt;br&gt;&lt;b&gt;+ Title: &lt;/b&gt;Eagle, lake&lt;br&gt;&lt;b&gt;+ alt-text: &lt;/b&gt;bird eagle, beautiful lake&lt;br&gt;&lt;b&gt;+ Accessible flag: &lt;/b&gt;Y/N&lt;br&gt;&lt;b&gt;+ Software used for conversion: &lt;/b&gt;Adobe Acrobat Pro, Ally&lt;br&gt;&lt;hr id=&quot;null&quot;&gt;+ getFormat()&lt;br&gt;+ getTitle()&lt;br&gt;+ getAltText()&lt;br&gt;+ getAccessibleFlag()&lt;br&gt;+ getSoftwareUsedForConversion()&lt;br&gt;&lt;/font&gt;" style="text;strokeColor=none;fillColor=none;align=left;verticalAlign=top;spacingLeft=4;spacingRight=4;overflow=hidden;rotatable=0;points=[[0,0.5],[1,0.5]];portConstraint=eastwest;whiteSpace=wrap;html=1;labelBackgroundColor=none;fontColor=#46495D;" vertex="1" parent="Kha7p-0pKT-xRUgH4Zrp-13">
          <mxGeometry y="26" width="310" height="250" as="geometry" />
        </mxCell>
        <mxCell id="Kha7p-0pKT-xRUgH4Zrp-15" value="&lt;b&gt;&lt;font style=&quot;font-size: 16px;&quot;&gt;VIDEO&lt;/font&gt;&lt;/b&gt;" style="swimlane;fontStyle=0;childLayout=stackLayout;horizontal=1;startSize=26;fillColor=#B2C9AB;horizontalStack=0;resizeParent=1;resizeParentMax=0;resizeLast=0;collapsible=1;marginBottom=0;whiteSpace=wrap;html=1;labelBackgroundColor=none;fontColor=#46495D;strokeColor=#788AA3;" vertex="1" parent="1">
          <mxGeometry x="-561" y="929" width="310" height="280" as="geometry" />
        </mxCell>
        <mxCell id="Kha7p-0pKT-xRUgH4Zrp-16" value="&lt;font style=&quot;font-size: 16px;&quot;&gt;&lt;b&gt;+ Format: &lt;/b&gt;mp4,wav,mov,wmv,avi,swf, html5&lt;br style=&quot;border-color: var(--border-color);&quot;&gt;&lt;b&gt;+ Title: &lt;/b&gt;Tutorial video for rest api&lt;br style=&quot;border-color: var(--border-color);&quot;&gt;&lt;b&gt;+ Accessible flag: &lt;/b&gt;Y/N&lt;br style=&quot;border-color: var(--border-color);&quot;&gt;&lt;b&gt;+ Software used for conversion: &lt;/b&gt;Adobe Acrobat Pro, Ally&lt;br&gt;&lt;hr id=&quot;null&quot;&gt;+ getFormat()&lt;br style=&quot;border-color: var(--border-color);&quot;&gt;+ getTitle()&lt;br style=&quot;border-color: var(--border-color);&quot;&gt;+ getAltText()&lt;br style=&quot;border-color: var(--border-color);&quot;&gt;+ getAccessibleFlag()&lt;br style=&quot;border-color: var(--border-color);&quot;&gt;+ getSoftwareUsedForConversion()&lt;/font&gt;" style="text;strokeColor=none;fillColor=none;align=left;verticalAlign=top;spacingLeft=4;spacingRight=4;overflow=hidden;rotatable=0;points=[[0,0.5],[1,0.5]];portConstraint=eastwest;whiteSpace=wrap;html=1;labelBackgroundColor=none;fontColor=#46495D;" vertex="1" parent="Kha7p-0pKT-xRUgH4Zrp-15">
          <mxGeometry y="26" width="310" height="254" as="geometry" />
        </mxCell>
        <mxCell id="Kha7p-0pKT-xRUgH4Zrp-17" value="&lt;b&gt;&lt;font style=&quot;font-size: 16px;&quot;&gt;AUDIO&lt;/font&gt;&lt;/b&gt;" style="swimlane;fontStyle=0;childLayout=stackLayout;horizontal=1;startSize=26;fillColor=#B2C9AB;horizontalStack=0;resizeParent=1;resizeParentMax=0;resizeLast=0;collapsible=1;marginBottom=0;whiteSpace=wrap;html=1;labelBackgroundColor=none;fontColor=#46495D;strokeColor=#788AA3;" vertex="1" parent="1">
          <mxGeometry x="-236" y="929" width="310" height="280" as="geometry" />
        </mxCell>
        <mxCell id="Kha7p-0pKT-xRUgH4Zrp-18" value="&lt;b style=&quot;border-color: var(--border-color); font-size: 16px;&quot;&gt;+ Format:&lt;/b&gt;&lt;span style=&quot;border-color: var(--border-color); font-size: 16px;&quot;&gt; &lt;/span&gt;&lt;span style=&quot;border-color: var(--border-color); font-size: 16px;&quot;&gt;mp3, wma, flac, wav ogg, midi&lt;/span&gt;&lt;br&gt;&lt;span style=&quot;font-size: 16px;&quot;&gt;&lt;b&gt;+ Title: &lt;/b&gt;Podcast&amp;nbsp;&lt;/span&gt;&lt;span style=&quot;font-size: 16px;&quot;&gt;of Cognitive theories&lt;/span&gt;&lt;br style=&quot;border-color: var(--border-color); font-size: 16px;&quot;&gt;&lt;b style=&quot;border-color: var(--border-color); font-size: 16px;&quot;&gt;+ Accessible flag:&amp;nbsp;&lt;/b&gt;&lt;span style=&quot;font-size: 16px;&quot;&gt;Y/N&lt;/span&gt;&lt;br style=&quot;border-color: var(--border-color); font-size: 16px;&quot;&gt;&lt;b style=&quot;border-color: var(--border-color); font-size: 16px;&quot;&gt;+ Software used for conversion:&amp;nbsp;&lt;/b&gt;&lt;span style=&quot;font-size: 16px;&quot;&gt;Adobe Acrobat Pro, Ally&lt;br&gt;&lt;/span&gt;&lt;hr id=&quot;null&quot;&gt;&lt;br style=&quot;border-color: var(--border-color); font-size: 16px;&quot;&gt;&lt;span style=&quot;font-size: 16px;&quot;&gt;+ getFormat()&lt;br&gt;+ getTitle()&lt;/span&gt;&lt;br style=&quot;border-color: var(--border-color); font-size: 16px;&quot;&gt;&lt;span style=&quot;font-size: 16px;&quot;&gt;+ getAltText()&lt;/span&gt;&lt;br style=&quot;border-color: var(--border-color); font-size: 16px;&quot;&gt;&lt;span style=&quot;font-size: 16px;&quot;&gt;+ getAccessibleFlag()&lt;/span&gt;&lt;br style=&quot;border-color: var(--border-color); font-size: 16px;&quot;&gt;&lt;span style=&quot;font-size: 16px;&quot;&gt;+ getSoftwareUsedForConversion()&lt;/span&gt;" style="text;strokeColor=none;fillColor=none;align=left;verticalAlign=top;spacingLeft=4;spacingRight=4;overflow=hidden;rotatable=0;points=[[0,0.5],[1,0.5]];portConstraint=eastwest;whiteSpace=wrap;html=1;labelBackgroundColor=none;fontColor=#46495D;" vertex="1" parent="Kha7p-0pKT-xRUgH4Zrp-17">
          <mxGeometry y="26" width="310" height="254" as="geometry" />
        </mxCell>
        <mxCell id="Kha7p-0pKT-xRUgH4Zrp-19" value="&lt;b&gt;&lt;font style=&quot;font-size: 16px;&quot;&gt;SPEAKING TOOLS&lt;/font&gt;&lt;/b&gt;" style="swimlane;fontStyle=0;childLayout=stackLayout;horizontal=1;startSize=26;fillColor=#B2C9AB;horizontalStack=0;resizeParent=1;resizeParentMax=0;resizeLast=0;collapsible=1;marginBottom=0;whiteSpace=wrap;html=1;labelBackgroundColor=none;fontColor=#46495D;strokeColor=#788AA3;" vertex="1" parent="1">
          <mxGeometry x="525" y="-730" width="266" height="236" as="geometry" />
        </mxCell>
        <mxCell id="Kha7p-0pKT-xRUgH4Zrp-20" value="&lt;font style=&quot;font-size: 16px;&quot;&gt;&lt;b&gt;+ Description: &lt;/b&gt;helps with communication&lt;br&gt;&lt;b&gt;+ Device/Software:&lt;/b&gt; voice amplification systems,fluency assistance device,artificial larynx,speech output software, speech generating devices&lt;br&gt;&lt;hr id=&quot;null&quot;&gt;+ getDescription()&lt;br&gt;+ getDevice()&lt;br&gt;&lt;br&gt;&lt;/font&gt;" style="text;strokeColor=none;fillColor=none;align=left;verticalAlign=top;spacingLeft=4;spacingRight=4;overflow=hidden;rotatable=0;points=[[0,0.5],[1,0.5]];portConstraint=eastwest;whiteSpace=wrap;html=1;labelBackgroundColor=none;fontColor=#46495D;" vertex="1" parent="Kha7p-0pKT-xRUgH4Zrp-19">
          <mxGeometry y="26" width="266" height="210" as="geometry" />
        </mxCell>
        <mxCell id="Kha7p-0pKT-xRUgH4Zrp-21" value="&lt;font style=&quot;font-size: 16px;&quot;&gt;&lt;b&gt;WRITING TOOLS&lt;/b&gt;&lt;/font&gt;" style="swimlane;fontStyle=0;childLayout=stackLayout;horizontal=1;startSize=26;fillColor=#B2C9AB;horizontalStack=0;resizeParent=1;resizeParentMax=0;resizeLast=0;collapsible=1;marginBottom=0;whiteSpace=wrap;html=1;labelBackgroundColor=none;fontColor=#46495D;strokeColor=#788AA3;" vertex="1" parent="1">
          <mxGeometry x="802" y="-505" width="266" height="218" as="geometry" />
        </mxCell>
        <mxCell id="Kha7p-0pKT-xRUgH4Zrp-22" value="&lt;font style=&quot;font-size: 16px;&quot;&gt;&lt;b&gt;+ Description:&lt;/b&gt; helps with writing&lt;br&gt;&lt;b&gt;+ Device/Software: &lt;/b&gt;handwriting tools, keyboard/touch screen,speech-to-text,word prediction, grammar check,text-to-speech,graphic organizers&lt;br&gt;&lt;hr id=&quot;null&quot;&gt;+ getDescription()&lt;br&gt;+ getDevice()&lt;br&gt;&lt;/font&gt;" style="text;strokeColor=none;fillColor=none;align=left;verticalAlign=top;spacingLeft=4;spacingRight=4;overflow=hidden;rotatable=0;points=[[0,0.5],[1,0.5]];portConstraint=eastwest;whiteSpace=wrap;html=1;labelBackgroundColor=none;fontColor=#46495D;" vertex="1" parent="Kha7p-0pKT-xRUgH4Zrp-21">
          <mxGeometry y="26" width="266" height="192" as="geometry" />
        </mxCell>
        <mxCell id="Kha7p-0pKT-xRUgH4Zrp-23" value="&lt;font style=&quot;font-size: 16px;&quot;&gt;&lt;b&gt;READING TOOLS&lt;/b&gt;&lt;/font&gt;" style="swimlane;fontStyle=0;childLayout=stackLayout;horizontal=1;startSize=26;fillColor=#B2C9AB;horizontalStack=0;resizeParent=1;resizeParentMax=0;resizeLast=0;collapsible=1;marginBottom=0;whiteSpace=wrap;html=1;labelBackgroundColor=none;fontColor=#46495D;strokeColor=#788AA3;" vertex="1" parent="1">
          <mxGeometry x="497" y="-364" width="266" height="230" as="geometry" />
        </mxCell>
        <mxCell id="Kha7p-0pKT-xRUgH4Zrp-24" value="&lt;font style=&quot;font-size: 16px;&quot;&gt;&lt;b&gt;+ Description:&lt;/b&gt; helps with reading&lt;br&gt;&lt;b&gt;+ Device/Software: &lt;/b&gt;paper based computer pen: pulse smartpen&lt;br&gt;+&amp;nbsp;&lt;b&gt;Screen Reader:&amp;nbsp;&amp;nbsp;&lt;/b&gt;ArraylIst&amp;lt;ScreenReader&amp;gt;&lt;br&gt;&lt;hr id=&quot;null&quot;&gt;+ getDescription()&lt;br style=&quot;border-color: var(--border-color);&quot;&gt;+ getDevice()&lt;br&gt;+ getScreenReader()&lt;br&gt;&lt;/font&gt;" style="text;strokeColor=none;fillColor=none;align=left;verticalAlign=top;spacingLeft=4;spacingRight=4;overflow=hidden;rotatable=0;points=[[0,0.5],[1,0.5]];portConstraint=eastwest;whiteSpace=wrap;html=1;labelBackgroundColor=none;fontColor=#46495D;" vertex="1" parent="Kha7p-0pKT-xRUgH4Zrp-23">
          <mxGeometry y="26" width="266" height="204" as="geometry" />
        </mxCell>
        <mxCell id="Kha7p-0pKT-xRUgH4Zrp-25" value="&lt;b&gt;&lt;font style=&quot;font-size: 16px;&quot;&gt;MATH TOOLS&lt;/font&gt;&lt;/b&gt;" style="swimlane;fontStyle=0;childLayout=stackLayout;horizontal=1;startSize=26;fillColor=#B2C9AB;horizontalStack=0;resizeParent=1;resizeParentMax=0;resizeLast=0;collapsible=1;marginBottom=0;whiteSpace=wrap;html=1;labelBackgroundColor=none;strokeColor=#788AA3;fontColor=#46495D;" vertex="1" parent="1">
          <mxGeometry x="497" y="-121" width="266" height="192" as="geometry" />
        </mxCell>
        <mxCell id="Kha7p-0pKT-xRUgH4Zrp-26" value="&lt;font style=&quot;font-size: 16px;&quot;&gt;&lt;b&gt;+&amp;nbsp;Description:&lt;/b&gt; helps with solving math&lt;br&gt;&lt;b&gt;+ Device/Software: &lt;/b&gt;calculators, graph paper&lt;br&gt;&lt;hr id=&quot;null&quot;&gt;+ getDescription()&lt;br style=&quot;border-color: var(--border-color);&quot;&gt;+ getDevice()&lt;/font&gt;" style="text;strokeColor=none;fillColor=none;align=left;verticalAlign=top;spacingLeft=4;spacingRight=4;overflow=hidden;rotatable=0;points=[[0,0.5],[1,0.5]];portConstraint=eastwest;whiteSpace=wrap;html=1;labelBackgroundColor=none;fontColor=#46495D;" vertex="1" parent="Kha7p-0pKT-xRUgH4Zrp-25">
          <mxGeometry y="26" width="266" height="166" as="geometry" />
        </mxCell>
        <mxCell id="Kha7p-0pKT-xRUgH4Zrp-64" style="edgeStyle=orthogonalEdgeStyle;rounded=0;orthogonalLoop=1;jettySize=auto;html=1;exitX=1;exitY=0.777;exitDx=0;exitDy=0;exitPerimeter=0;labelBackgroundColor=none;fontColor=default;strokeColor=#788AA3;" edge="1" parent="1" source="jCh2vAqL-qauHgvOBUfU-3" target="Kha7p-0pKT-xRUgH4Zrp-22">
          <mxGeometry relative="1" as="geometry" />
        </mxCell>
        <mxCell id="Kha7p-0pKT-xRUgH4Zrp-94" value="COURSE" style="swimlane;fontStyle=1;align=center;verticalAlign=top;childLayout=stackLayout;horizontal=1;startSize=26;horizontalStack=0;resizeParent=1;resizeParentMax=0;resizeLast=0;collapsible=1;marginBottom=0;whiteSpace=wrap;html=1;fontSize=16;labelBackgroundColor=none;fillColor=#B2C9AB;fontColor=#46495D;strokeColor=#788AA3;" vertex="1" parent="1">
          <mxGeometry x="-844" y="-691" width="316" height="432" as="geometry" />
        </mxCell>
        <mxCell id="Kha7p-0pKT-xRUgH4Zrp-95" value="&lt;b style=&quot;border-color: var(--border-color);&quot;&gt;+ Name:&amp;nbsp;&lt;/b&gt;Intro to info security, Database concepts&lt;br style=&quot;border-color: var(--border-color);&quot;&gt;&lt;b style=&quot;border-color: var(--border-color);&quot;&gt;+ CRN:&amp;nbsp;&lt;/b&gt;239238, 83473847&lt;br style=&quot;border-color: var(--border-color);&quot;&gt;&lt;b style=&quot;border-color: var(--border-color);&quot;&gt;+ FacultyId:&amp;nbsp;&lt;/b&gt;123&lt;br style=&quot;border-color: var(--border-color);&quot;&gt;&lt;b style=&quot;border-color: var(--border-color);&quot;&gt;+ Capacity:&amp;nbsp;&amp;nbsp;&lt;/b&gt;15&lt;br style=&quot;border-color: var(--border-color);&quot;&gt;&lt;b style=&quot;border-color: var(--border-color);&quot;&gt;+ Semester offered:&amp;nbsp;&lt;/b&gt;summer, fall&lt;br style=&quot;border-color: var(--border-color);&quot;&gt;&lt;b style=&quot;border-color: var(--border-color);&quot;&gt;+ Location:&amp;nbsp;&lt;/b&gt;atlanta campus, online, shangai campus&lt;br style=&quot;border-color: var(--border-color);&quot;&gt;&lt;b style=&quot;border-color: var(--border-color);&quot;&gt;+ College:&amp;nbsp;&lt;/b&gt;coc, college of sciences&lt;br style=&quot;border-color: var(--border-color);&quot;&gt;&lt;b style=&quot;border-color: var(--border-color);&quot;&gt;+ Waitlist:&amp;nbsp;&lt;/b&gt;55&lt;br style=&quot;border-color: var(--border-color);&quot;&gt;&lt;b style=&quot;border-color: var(--border-color);&quot;&gt;+ Prereqs:&amp;nbsp;&lt;/b&gt;CS4567&lt;br style=&quot;border-color: var(--border-color);&quot;&gt;&lt;b style=&quot;border-color: var(--border-color);&quot;&gt;+ TAs:&amp;nbsp;&lt;/b&gt;Sunil, Jia, Chris&lt;br style=&quot;border-color: var(--border-color);&quot;&gt;&lt;b style=&quot;border-color: var(--border-color);&quot;&gt;+ Students:&lt;/b&gt;&amp;nbsp;ArrayList&amp;lt;Student&amp;gt;&lt;br style=&quot;border-color: var(--border-color);&quot;&gt;&lt;b style=&quot;border-color: var(--border-color);&quot;&gt;+ Faculties:&lt;/b&gt;&amp;nbsp;ArrayList&amp;lt;Faculty&amp;gt;&lt;br&gt;&lt;b style=&quot;border-color: var(--border-color);&quot;&gt;+ Documents:&lt;/b&gt;&amp;nbsp;ArrayList&amp;lt;Document&amp;gt;" style="text;strokeColor=none;fillColor=none;align=left;verticalAlign=top;spacingLeft=4;spacingRight=4;overflow=hidden;rotatable=0;points=[[0,0.5],[1,0.5]];portConstraint=eastwest;whiteSpace=wrap;html=1;fontSize=16;labelBackgroundColor=none;fontColor=#46495D;" vertex="1" parent="Kha7p-0pKT-xRUgH4Zrp-94">
          <mxGeometry y="26" width="316" height="298" as="geometry" />
        </mxCell>
        <mxCell id="Kha7p-0pKT-xRUgH4Zrp-96" value="" style="line;strokeWidth=1;fillColor=none;align=left;verticalAlign=middle;spacingTop=-1;spacingLeft=3;spacingRight=3;rotatable=0;labelPosition=right;points=[];portConstraint=eastwest;fontSize=16;labelBackgroundColor=none;strokeColor=#788AA3;fontColor=#46495D;" vertex="1" parent="Kha7p-0pKT-xRUgH4Zrp-94">
          <mxGeometry y="324" width="316" height="8" as="geometry" />
        </mxCell>
        <mxCell id="Kha7p-0pKT-xRUgH4Zrp-97" value="+ getCourses()&lt;br&gt;+ getStudentsInThisCourse()&lt;br&gt;+ getCourseCapacity()&lt;br&gt;+ getDocumentsInThisCourse()" style="text;strokeColor=none;fillColor=none;align=left;verticalAlign=top;spacingLeft=4;spacingRight=4;overflow=hidden;rotatable=0;points=[[0,0.5],[1,0.5]];portConstraint=eastwest;whiteSpace=wrap;html=1;fontSize=16;labelBackgroundColor=none;fontColor=#46495D;" vertex="1" parent="Kha7p-0pKT-xRUgH4Zrp-94">
          <mxGeometry y="332" width="316" height="100" as="geometry" />
        </mxCell>
        <mxCell id="Kha7p-0pKT-xRUgH4Zrp-11" value="&lt;b&gt;&lt;font style=&quot;font-size: 16px;&quot;&gt;MEDIA&lt;/font&gt;&lt;/b&gt;" style="swimlane;fontStyle=0;childLayout=stackLayout;horizontal=1;startSize=26;fillColor=#B2C9AB;horizontalStack=0;resizeParent=1;resizeParentMax=0;resizeLast=0;collapsible=1;marginBottom=0;whiteSpace=wrap;html=1;labelBackgroundColor=none;fontColor=#46495D;strokeColor=#788AA3;" vertex="1" parent="1">
          <mxGeometry x="-561" y="588" width="310" height="258" as="geometry" />
        </mxCell>
        <mxCell id="Kha7p-0pKT-xRUgH4Zrp-12" value="&lt;font style=&quot;font-size: 16px;&quot;&gt;&lt;b&gt;+ Type: &lt;/b&gt;images, video, audio (podcasts)&lt;br&gt;&lt;b&gt;+ Document location: &lt;/b&gt;body, header, title&lt;br&gt;&lt;b&gt;+ Audio:&lt;/b&gt; ArrayList&amp;lt;Audio&amp;gt;&lt;br&gt;&lt;b&gt;+ Video:&lt;/b&gt; ArrayList&amp;lt;Video&amp;gt;&lt;br&gt;&lt;b&gt;+ Image:&lt;/b&gt; ArrayList&amp;lt;Images&amp;gt;&lt;br&gt;&lt;hr id=&quot;null&quot;&gt;+ getType()&lt;br&gt;+ getDocumentLocation()&lt;br&gt;+ getListOfAudio()&lt;br&gt;+ getListOfVideo()&lt;br&gt;+ getListOfImages()&lt;br&gt;&lt;/font&gt;" style="text;strokeColor=none;fillColor=none;align=left;verticalAlign=top;spacingLeft=4;spacingRight=4;overflow=hidden;rotatable=0;points=[[0,0.5],[1,0.5]];portConstraint=eastwest;whiteSpace=wrap;html=1;labelBackgroundColor=none;fontColor=#46495D;" vertex="1" parent="Kha7p-0pKT-xRUgH4Zrp-11">
          <mxGeometry y="26" width="310" height="232" as="geometry" />
        </mxCell>
        <mxCell id="Kha7p-0pKT-xRUgH4Zrp-81" style="edgeStyle=orthogonalEdgeStyle;rounded=0;orthogonalLoop=1;jettySize=auto;html=1;labelBackgroundColor=none;fontColor=default;strokeColor=#788AA3;" edge="1" parent="1" source="Kha7p-0pKT-xRUgH4Zrp-11" target="Kha7p-0pKT-xRUgH4Zrp-15">
          <mxGeometry relative="1" as="geometry" />
        </mxCell>
      </root>
    </mxGraphModel>
  </diagram>
</mxfile>
